<svg xmlns="http://www.w3.org/2000/svg" width="191" height="33" viewBox="0 0 191 33">
    <path fill="#5B5B5B" fill-rule="evenodd" d="M28.07 19.72c-.572.363-1.244.408-1.756.118-.65-.37-1.007-1.235-1.007-2.438v-3.6c0-1.739-.682-2.976-1.824-3.31-1.934-.567-3.388 1.816-3.935 2.71l-3.41 5.57v-6.807c-.039-1.566-.544-2.503-1.503-2.786-.634-.187-1.584-.112-2.506 1.31L4.487 22.845A13.655 13.655 0 0 1 2.934 16.5C2.934 9.056 8.857 3 16.138 3c7.28 0 13.202 6.056 13.202 13.5 0 .013.004.024.004.036 0 .013-.002.024-.001.037.069 1.442-.395 2.589-1.273 3.147zm4.204-3.22v-.074C32.232 7.36 25.01 0 16.136 0 7.24 0 0 7.402 0 16.5 0 25.598 7.24 33 16.138 33c4.082 0 7.98-1.563 10.97-4.4.595-.564.63-1.513.079-2.12a1.448 1.448 0 0 0-2.073-.08 13.001 13.001 0 0 1-8.976 3.6c-3.899 0-7.406-1.738-9.825-4.493l6.89-11.145V19.5c0 2.468.951 3.265 1.748 3.499.797.233 2.016.074 3.295-2.019l3.79-6.189c.122-.2.234-.372.337-.52V17.4c0 2.307.917 4.151 2.516 5.06 1.442.82 3.254.745 4.731-.193 1.79-1.139 2.755-3.237 2.654-5.766zm22.467-5.637c.388.238.723.766.723 1.242 0 .765-.645 1.398-1.369 1.398-.18 0-.36-.052-.516-.105-.853-.633-1.937-1.056-3.073-1.056-2.686 0-4.545 2.217-4.545 4.963s1.86 4.937 4.545 4.937c1.342 0 2.53-.555 3.434-1.399.234-.169.514-.261.801-.264.723 0 1.292.58 1.292 1.32 0 .475-.285.898-.646 1.135-1.292 1.11-3.047 1.848-4.855 1.848-4.132 0-7.49-3.432-7.49-7.656S46.4 9.57 50.532 9.57c1.55 0 3.02.475 4.21 1.293zm7.555 3.195c2.815 0 5.19 2.403 5.19 5.359 0 2.957-2.375 5.465-5.19 5.465-2.944 0-5.397-2.508-5.397-5.465 0-2.956 2.453-5.359 5.397-5.359zm-.026 8.184c1.24 0 2.298-1.188 2.298-2.799 0-1.61-1.058-2.613-2.298-2.613-1.343 0-2.453.977-2.453 2.613 0 1.611 1.11 2.799 2.453 2.799zm6.987 1.003v-7.55c0-.818.646-1.505 1.447-1.505.8 0 1.472.687 1.472 1.505v7.55c0 .818-.672 1.505-1.472 1.505-.801 0-1.447-.687-1.447-1.505zm-.232-11.906c0-.977.748-1.769 1.679-1.769.955 0 1.73.792 1.73 1.77 0 .949-.775 1.715-1.73 1.715-.93 0-1.679-.766-1.679-1.716zm8.743 7.814v4.092c0 .818-.671 1.505-1.473 1.505-.8 0-1.446-.687-1.446-1.505V15.35c0-.633.517-1.161 1.137-1.161s1.11.528 1.11 1.161c1.188-1.108 2.22-1.293 3.202-1.293 2.919 0 4.21 2.217 4.21 4.725v4.462c0 .818-.671 1.505-1.472 1.505-.8 0-1.446-.687-1.446-1.505v-4.092c0-1.294-.155-2.376-1.989-2.376-1.291 0-1.834 1.082-1.834 2.376h.001zM94 20.71c-.336 0-.567-.158-.749-.37l-3.41-3.722v6.626c0 .818-.67 1.505-1.471 1.505-.8 0-1.447-.687-1.447-1.505v-13.12a.57.57 0 0 1 .544-.37c.257 0 .463.212.62.37l5.422 6.151c.155.185.362.29.465.29.103 0 .31-.105.465-.289l5.424-6.152c.155-.158.36-.37.619-.37.258 0 .465.159.543.37v13.12c0 .818-.646 1.505-1.447 1.505-.8 0-1.472-.687-1.472-1.505v-6.626l-3.408 3.722c-.182.212-.414.37-.698.37zm14.037 1.531c1.317 0 2.427-1.188 2.427-2.799 0-1.61-1.135-2.666-2.427-2.666-1.291 0-2.324 1.082-2.324 2.666 0 1.558 1.033 2.799 2.324 2.799zm3.1 1.347l-.053-.344c-.568 1.135-2.376 1.637-3.538 1.637-2.738 0-4.752-2.508-4.752-5.465 0-2.956 2.066-5.359 4.907-5.359.49 0 2.118.132 3.383 1.637l.052-.344c0-.633.49-1.161 1.11-1.161.62 0 1.136.528 1.136 1.161v8.238c0 .633-.516 1.161-1.136 1.161-.62 0-1.111-.528-1.111-1.161h.001zm10.343-6.812h-.31c-1.833.106-2.195 1.162-2.195 2.376v4.092c0 .818-.67 1.505-1.472 1.505-.8 0-1.446-.687-1.446-1.505V15.35c0-.633.516-1.161 1.136-1.161.62 0 1.111.528 1.111 1.161 1.085-1.029 1.963-1.24 2.867-1.293h.283c.698 0 1.343.607 1.343 1.373 0 .712-.62 1.346-1.317 1.346zm11.248 5.782c.13.211.207.448.207.712 0 .766-.697 1.479-1.446 1.479-.517 0-.956-.396-1.292-.819l-3.356-3.933v3.247c0 .818-.672 1.505-1.473 1.505-.8 0-1.447-.687-1.447-1.505V11.26c0-.82.646-1.505 1.447-1.505.8 0 1.472.686 1.472 1.505v7.471l3.357-3.749c.336-.396.75-.792 1.266-.792.723 0 1.395.687 1.395 1.452a1.3 1.3 0 0 1-.182.687l-2.66 2.93 2.712 3.3zm5.722-5.729c-.8 0-2.092.423-2.092 1.663h4.21c0-1.267-1.343-1.663-2.119-1.663h.001zm3.822 3.537h-5.914c0 1.77 1.678 2.034 2.427 2.034.544 0 1.318-.106 1.912-.37.18-.132.49-.238.748-.238.646 0 1.188.555 1.188 1.215 0 .449-.284.845-.645 1.055-.904.66-2.067.819-3.177.819-2.944 0-5.397-1.61-5.397-5.333 0-2.93 1.498-5.491 4.984-5.491 2.815 0 4.958 1.848 5.01 5.148 0 .633-.516 1.161-1.136 1.161zm8.123 4.515h-.8c-2.222 0-3.513-.977-3.513-4.488v-3.617h-.749c-.697 0-1.317-.634-1.317-1.346 0-.766.62-1.373 1.317-1.373h.75v-2.799c0-.818.645-1.505 1.446-1.505.8 0 1.472.687 1.472 1.505v2.799h1.213c.698 0 1.318.607 1.318 1.373 0 .712-.62 1.346-1.318 1.346H149v3.036c0 2.006.103 2.429.981 2.429h.413c.697 0 1.291.581 1.291 1.32 0 .713-.594 1.32-1.29 1.32zm14.14-14.019c.388.238.724.766.724 1.242 0 .765-.646 1.398-1.369 1.398-.18 0-.362-.052-.516-.105-.853-.633-1.937-1.056-3.074-1.056-2.685 0-4.545 2.217-4.545 4.963s1.86 4.937 4.545 4.937c1.343 0 2.531-.555 3.435-1.399.233-.169.513-.261.8-.264.724 0 1.291.58 1.291 1.32 0 .475-.283.898-.645 1.135-1.291 1.11-3.048 1.848-4.855 1.848-4.132 0-7.49-3.432-7.49-7.656s3.357-7.656 7.49-7.656a7.44 7.44 0 0 1 4.21 1.293zm7.401 11.379c1.317 0 2.427-1.188 2.427-2.799 0-1.61-1.136-2.666-2.428-2.666-1.29 0-2.324 1.082-2.324 2.666 0 1.558 1.034 2.799 2.324 2.799h.001zm3.098 1.347l-.05-.344c-.569 1.135-2.377 1.637-3.54 1.637-2.737 0-4.751-2.508-4.751-5.465 0-2.956 2.066-5.359 4.907-5.359.49 0 2.117.132 3.383 1.637l.051-.344c0-.633.491-1.161 1.111-1.161s1.137.528 1.137 1.161v8.238c0 .633-.517 1.161-1.137 1.161s-1.11-.528-1.11-1.161zm10.267-1.347c1.292 0 2.324-1.241 2.324-2.799 0-1.584-1.032-2.666-2.324-2.666-1.291 0-2.428 1.056-2.428 2.666 0 1.611 1.111 2.799 2.428 2.799zm-2.428 1.77v3.747c0 .819-.671 1.506-1.472 1.506-.8 0-1.446-.687-1.446-1.506V15.351c0-.633.517-1.161 1.137-1.161s1.11.528 1.11 1.267c1.084-1.135 2.428-1.399 3.435-1.399 2.84 0 4.907 2.403 4.907 5.359 0 2.957-2.014 5.465-4.752 5.465-.852 0-2.118-.264-2.919-.87z"/>
</svg>
