<?xml version="1.0" encoding="UTF-8"?>
<svg width="194px" height="60px" viewBox="0 0 194 60" version="1.1" xmlns="http://www.w3.org/2000/svg" xmlns:xlink="http://www.w3.org/1999/xlink">
    <title>Group 4</title>
    <defs>
        <polygon id="path-1" points="0 0.0861176471 54.09072 0.0861176471 54.09072 59.4458824 0 59.4458824"></polygon>
        <polygon id="path-3" points="0.162827397 0.0846292948 27.4852647 0.0846292948 27.4852647 27.6970524 0.162827397 27.6970524"></polygon>
        <polygon id="path-5" points="0.0948646575 0.0493670886 21.3006553 0.0493670886 21.3006553 6.82535262 0.0948646575 6.82535262"></polygon>
        <polygon id="path-7" points="0 0.0857088608 27.0464123 0.0857088608 27.0464123 27.8848861 0 27.8848861"></polygon>
        <polygon id="path-9" points="0 0.118625678 7.39134545 0.118625678 7.39134545 14.5056058 0 14.5056058"></polygon>
        <polyline id="path-11" points="0.0249955556 2.81383966 0.0249955556 4.67983122 1.80238222 5.25367089 4.06819556 4.57181435 5.25312 2.74227848 4.66065778 1.12742616 1.90709333 0.122869198"></polyline>
        <polyline id="path-13" points="0.0249955556 2.81383966 0.0249955556 4.67983122 1.80238222 5.25367089 4.06819556 4.57181435 5.25312 2.74227848 4.66065778 1.12742616 1.90709333 0.122869198"></polyline>
        <polyline id="path-15" points="0.0249955556 2.81383966 0.0249955556 4.67983122 1.80238222 5.25367089 4.06819556 4.57181435 5.25312 2.74227848 4.66065778 1.12742616 1.90709333 0.122869198"></polyline>
        <polyline id="path-17" points="0.664746667 1.12742616 0.0722844444 2.74227848 1.25720889 4.57181435 3.52234667 5.25367089 5.29973333 4.67983122 5.29973333 2.81383966 3.41831111 0.122869198"></polyline>
        <polyline id="path-19" points="0.664746667 1.12742616 0.0722844444 2.74227848 1.25720889 4.57181435 3.52234667 5.25367089 5.29973333 4.67983122 5.29973333 2.81383966 3.41831111 0.122869198"></polyline>
        <polyline id="path-21" points="0.664746667 1.12742616 0.0722844444 2.74227848 1.25720889 4.57181435 3.52234667 5.25367089 5.29973333 4.67983122 5.29973333 2.81383966 3.41831111 0.122869198"></polyline>
    </defs>
    <g id="Page-1" stroke="none" stroke-width="1" fill="none" fill-rule="evenodd">
        <g id="Group-4">
            <g id="Group-3" transform="translate(67.000000, 20.000000)" fill="#FFFFFF" fill-rule="nonzero">
                <path d="M4.88699533,4.27186573 L3.68809935,4.27186573 L3.68809935,15.9552919 L4.9214504,15.9552919 C8.23968507,15.9552919 10.40262,13.6265644 10.40262,10.1135788 C10.40262,6.63242422 8.20241734,4.27258916 4.88699533,4.27258916 L4.88699533,4.27186573 Z M4.89824596,0.398611011 C7.7896596,0.398611011 10.0538502,1.61252984 11.6240172,3.25906099 C13.2687197,5.00470231 14.0907193,7.29942849 14.0907193,10.143963 C14.0907193,12.9884974 13.2680165,15.2752659 11.6240172,17.0049917 C9.81266472,18.9032771 7.57027219,19.8531433 4.89824596,19.8531433 L0,19.8531433 L0,0.410909354 L4.89824596,0.410909354 L4.89824596,0.398611011 Z M20.3826379,5.92563119 C19.2857008,7.1004847 18.7379355,8.49670838 18.7379355,10.1143022 C18.7379355,11.7470882 19.286404,13.1433119 20.3826379,14.3015264 C21.471137,15.4517833 22.7916805,16.0276351 24.3449715,16.0276351 C25.8750581,16.0276351 27.1920858,15.4525067 28.2960545,14.3015264 C29.4000233,13.1512696 29.9513045,11.7550459 29.9513045,10.1135788 C29.9513045,8.48875063 29.4000233,7.09252695 28.2960545,5.92563119 C27.1991174,4.76741662 25.8827929,4.18794762 24.3442684,4.18794762 C22.7839457,4.18794762 21.4634022,4.76741662 20.3826379,5.92563119 M30.9448763,3.15054619 C32.7801364,5.08934385 33.6970633,7.41879476 33.6970633,10.1381755 C33.6970633,12.865514 32.7801364,15.1906243 30.9448763,17.1135065 C29.1180542,19.0284309 26.9178515,19.9855314 24.3449715,19.9855314 C21.7643567,19.978297 19.5641541,19.0204731 17.7443636,17.1135065 C15.9175415,15.1819431 15.0041304,12.8575562 15.0041304,10.1381755 C15.0041304,7.42675251 15.9182446,5.0973016 17.7443636,3.14982276 C19.5796237,1.2110251 21.7791232,0.241626275 24.3449715,0.241626275 C26.9101167,0.241626275 29.1103194,1.2110251 30.9448763,3.14982276 M43.9281111,0.278521305 C46.7703032,0.278521305 49.0359002,1.60095493 50.5399697,3.1621211 L47.9016953,5.95022788 C46.7829602,4.78333213 45.4659325,4.20024597 43.9513155,4.20024597 C42.4057593,4.20024597 41.0887316,4.78333213 39.9995294,5.95022788 C38.9039986,7.10844245 38.3555301,8.5039427 38.3555301,10.1381755 C38.3555301,11.7709614 38.9039986,13.1671851 40.0002325,14.3261231 C41.0809968,15.4836143 42.3980245,16.0638067 43.9513155,16.0638067 C46.3434822,16.0638067 48.1921024,14.4925125 48.9979293,12.6600593 L43.7452882,12.6600593 L43.7452882,8.93076756 L53.2007452,8.93076756 C53.4637289,12.5667366 52.3344462,15.2065398 50.5167652,17.1135065 C48.6822083,19.0363886 46.4820056,19.9978297 43.9168605,19.9978297 C41.3285108,19.9978297 39.131824,19.0363886 37.3282063,17.1135065 C35.500681,15.1985821 34.5872699,12.8734717 34.5872699,10.1381755 C34.5872699,7.42675251 35.5013842,5.0973016 37.3275032,3.14982276 C39.1395588,1.2110251 41.3355425,0.241626275 43.9161573,0.241626275 L43.9281111,0.277797873 L43.9281111,0.278521305 Z M65.932247,0.350864501 L65.932247,4.24871591 L58.5328439,4.24871591 L58.5328439,8.17044057 L64.0822205,8.17044057 L64.0822205,12.0690154 L58.5328439,12.0690154 L58.5328439,15.9914635 L65.932247,15.9914635 L65.932247,19.8770166 L54.8327907,19.8770166 L54.8327907,0.350864501 L65.932247,0.350864501 Z M76.1752486,19.9862548 C73.6016654,19.978297 71.4056818,19.0204731 69.5865945,17.1135065 C67.7590692,15.1819431 66.8456581,12.8575562 66.8456581,10.1374521 C66.8456581,7.42675251 67.7590692,5.0973016 69.5858913,3.15054619 C71.4211514,1.21174854 73.6171351,0.242349707 76.1745454,0.242349707 L76.1632948,0.290096216 C79.0054869,0.290096216 81.2654586,1.62410475 82.7871072,3.17441945 L80.1488329,5.96252622 C79.0378325,4.80358822 77.7158827,4.22411922 76.1864992,4.22411922 C74.6332082,4.22411922 73.3161805,4.80358822 72.2347131,5.96252622 C71.1391823,7.1366563 70.5907138,8.53287998 70.5907138,10.1497504 C70.5907138,11.7832598 71.1391823,13.1794835 72.2354163,14.3384215 C73.3239154,15.4886783 74.6402399,16.0638067 76.1864992,16.0638067 C77.7390871,16.0638067 79.0638496,15.4843377 80.1593803,14.3261231 L82.7983578,17.112783 C81.2879598,18.6949287 79.0469736,19.9848079 76.1752486,19.9848079 M93.4288032,13.444983 L91.7503488,9.32937857 L90.04869,13.444983 L93.4288032,13.444983 Z M91.738395,0 L100.143324,19.8531433 L96.1352845,19.8531433 L94.8906828,16.8964769 L88.5875136,16.8964769 L87.3429119,19.8531433 L83.34542,19.8531433 L91.738395,0 Z M105.957794,16.0232945 C106.979492,16.0232945 108.107368,15.1262389 108.107368,14.0468784 C108.107368,12.2701295 105.851616,12.0227158 104.578887,11.5568256 C102.334385,10.7480286 100.352867,8.80054981 100.352867,6.15134197 C100.352867,2.87057802 102.870197,0.227157636 105.974669,0.227157636 C108.804908,0.227157636 111.149962,2.44592346 111.529671,5.33097012 L107.856338,6.15134197 C107.856338,5.08355639 107.007619,4.18650076 105.996468,4.18650076 C104.969847,4.18650076 104.121127,5.08355639 104.121127,6.16291688 C104.121127,7.91579252 106.220074,8.3816827 107.498428,8.78318744 C109.820981,9.49142733 111.870003,11.361499 111.870003,14.0700282 C111.870003,17.3507922 109.084064,20 105.98592,20 C103.138103,20 100.56452,17.7935325 100.145433,14.8961875 L103.819469,14.0700282 C103.819469,15.1558996 104.936095,16.0413803 105.974669,16.0413803 L105.957794,16.0232945 Z M117.157099,0.398611011 L117.157099,8.18273891 L123.311901,8.18273891 L123.311901,0.398611011 L127,0.398611011 L127,19.8531433 L123.311901,19.8531433 L123.311901,12.0567171 L117.157099,12.0567171 L117.157099,19.8531433 L113.468297,19.8531433 L113.468297,0.398611011 L117.157099,0.398611011 Z" id="Shape"></path>
            </g>
            <g id="Group-2">
                <g id="logo">
                    <g id="Clipped" transform="translate(0.380000, 0.000000)">
                        <mask id="mask-2" fill="white">
                            <use xlink:href="#path-1"></use>
                        </mask>
                        <g id="a"></g>
                        <polygon id="Path" fill="#CC8E58" fill-rule="nonzero" mask="url(#mask-2)" points="52.7367508 0.835764706 49.9811077 0.0861176471 46.0665231 2.23482353 39.4432985 7.63129412 36.1074831 6.63176471 32.4819323 5.98235294 27.0450092 6.63176471 21.6080862 5.98235294 17.9825354 6.63176471 14.6474215 7.63129412 8.02489846 2.23482353 4.10820923 0.0861176471 1.35396923 0.835764706 0 2.93435294 0 10.9785882 0.96672 14.3265882 1.06353231 17.6738824 3.19059692 22.0715294 3.33511385 26.7056471 2.36839385 31.9150588 1.88503385 38.3103529 4.30253538 42.3571765 8.07260308 45.6804706 8.89480615 46.4047059 11.8917785 52.8501176 16.5492923 56.2785882 18.2729723 57.5470588 27.0436062 59.4458824 27.0464123 59.4458824 35.8177477 57.5470588 37.5414277 56.2785882 42.1989415 52.8501176 45.1959138 46.4054118 46.0174154 45.6804706 49.7881846 42.3571765 52.2049846 38.3103529 51.7216246 31.9150588 50.7549046 26.7056471 50.9001231 22.0715294 53.0264862 17.6738824 53.1232985 14.3265882 54.09072 10.9785882 54.09072 2.93435294"></polygon>
                    </g>
                    <polygon id="Path" fill="#DBD5C3" fill-rule="nonzero" points="21.6286355 51.4164305 20.5545916 47.4724525 18.7089447 46.9342535 15.7658302 44.2699929 14.8977767 41.0126582 11.2326622 45.7389594 9.5 46.3615817 12.4431145 52.7854961 17.0169294 56.2025316 20.5545916 54.3248154 23.94 52.5280048"></polygon>
                    <g id="Group" transform="translate(4.180000, 0.000000)">
                        <polygon id="Path" fill="#2C1800" fill-rule="nonzero" points="23.97952 21.1023146 24.9812625 11.2359494 23.97952 11.396745"></polygon>
                        <polygon id="Path" fill="#262626" fill-rule="nonzero" points="28.5939068 35.2050814 25.8116822 33.8714647 22.1508975 33.8714647 19.3679649 35.2043761 18.488697 37.4280108 18.928331 39.4033996 21.2362323 42.0212658 23.97952 42.8605063 23.97952 42.8612116 23.9823518 42.8612116 23.9823518 42.8605063 26.7263474 42.0212658 29.0342488 39.4033996 29.4731748 37.4280108"></polygon>
                        <path d="M25.2007255,38.9097288 L26.1649468,39.2552984 L27.4222575,39.2552984 L28.3503737,37.6007957 L26.5677677,36.3165461 L23.9823518,35.7735081 L23.97952,35.7735081 L21.3941041,36.3165461 L19.612206,37.6000904 L20.5396142,39.2552984 L21.7969249,39.2552984 L22.7618542,38.9097288 L21.9314345,40.0211935 L19.7325567,40.3159855 L21.2355244,42.0212658 L23.97952,42.8605063 L23.9823518,42.8605063 L26.7263474,42.0212658 L28.230023,40.3159855 L26.0311452,40.0211935 L25.2007255,38.9097288 Z M32.4769863,45.2569259 L30.2058981,45.2569259 L23.9830597,43.8499638 L23.9830597,43.8492586 L23.97952,43.8492586 L17.7566816,45.2569259 L15.4855934,45.2569259 L13.7277655,42.8612116 L13.7277655,44.5897649 L15.1195858,46.4424412 L17.7566816,47.1829476 L21.2355244,45.5531284 L23.97952,46.3676854 L23.9823518,46.3676854 L26.7263474,45.5531284 L30.2058981,47.1829476 L32.842994,46.4424412 L34.2348142,44.5897649 L34.2348142,42.8612116 L32.4769863,45.2569259 Z" id="Shape" fill="#000000" fill-rule="nonzero"></path>
                        <polygon id="Path" fill="#918A85" fill-rule="nonzero" points="30.2058981 47.1829476 26.7263474 45.5531284 23.9809359 46.3676854 21.2355244 45.5531284 17.7559737 47.1829476 21.2355244 49.084991 23.97952 49.6280289 23.9823518 49.6280289 26.7263474 49.084991"></polygon>
                        <polygon id="Path" fill="#5C524A" fill-rule="nonzero" points="30.2058981 45.2569259 28.230023 40.3159855 26.7263474 42.0212658 23.9809359 42.8605063 21.2355244 42.0212658 19.7325567 40.3159855 17.7559737 45.2569259 23.9809359 43.8492586"></polygon>
                        <polygon id="Path" fill="#EBE8DB" fill-rule="nonzero" points="30.2058981 47.1829476 26.7263474 49.084991 23.9809359 49.6280289 21.2355244 49.084991 17.7559737 47.1829476 17.0175868 46.9756058 18.1219814 50.8875949 21.7969249 52.59217 23.97952 53.184575 23.9823518 53.184575 26.1649468 52.59217 29.8391825 50.8875949 30.9449929 46.9756058"></polygon>
                        <g transform="translate(23.816693, 0.000000)" id="Clipped">
                            <mask id="mask-4" fill="white">
                                <use xlink:href="#path-3"></use>
                            </mask>
                            <g id="m"></g>
                            <polygon id="Path" fill="#A8633A" fill-rule="nonzero" mask="url(#mask-4)" points="8.91656986 7.34582278 12.6885019 7.54329114 19.3785841 2.20882459 23.3345819 0.0853345389 26.1175145 0.825840868 27.4852647 2.90066908 27.4852647 7.93893309 26.0693742 8.97564195 26.0693742 5.9635443 25.4336395 3.19757685 23.7735079 2.80264014 19.573977 4.08618445 15.6186871 8.58141049 16.0094729 14.0646835 19.9031715 17.4724231 22.455314 25.8084087 17.6696044 27.6977577 13.824046 23.4987342 12.4322258 23.8076311 13.5189216 20.6833996 12.1122345 19.1925136 11.4680044 18.5098373 8.87975671 18.0655335 7.80580384 13.5703074 5.29047452 13.3728391 3.15743562 11.2373599 1.38403288 13.8672152 0.163535342 22.1150452 0.163535342 8.58141049"></polygon>
                        </g>
                        <polygon id="Path" fill="#CC8E58" fill-rule="nonzero" points="46.9551737 41.8731646 47.4875485 35.6740687 44.6557677 29.0052803 41.486297 27.6970524 46.2720066 25.8069982 34.2348142 8.9763472 39.8261655 14.0639783 43.7198641 17.4717179 48.0786827 21.8188427 48.9083945 31.5498011 49.3968767 37.8723146"></polygon>
                        <path d="M36.5051945,7.54399638 L33.1353753,6.55594937 L29.4731748,5.91417722 L23.9809359,6.55594937 L18.488697,5.91417722 L14.8264964,6.55594937 L11.4566773,7.54329114 L15.2300252,7.34582278 L23.9802279,8.58070524 L23.9823518,8.58070524 L32.7325545,7.34652803 L36.5051945,7.54399638 Z M35.8701677,17.6698915 L31.6224964,13.5696022 L32.6964493,18.0648282 L35.284697,18.509132 L36.1512219,19.4280651 L35.8701677,17.6698915 Z" id="Shape" fill="#A8633A" fill-rule="nonzero"></path>
                        <polygon id="Path" fill="#EBE8DB" fill-rule="nonzero" points="32.842994 46.4424412 35.8701677 43.7998915 38.4095671 34.6119711 37.0304899 29.8706148 37.6407386 25.8077034 32.842994 32.8340506 29.4731748 31.3029656 25.47824 31.5498011 25.8109742 33.8714647 28.5946148 35.2043761 29.4731748 37.4280108 29.0342488 39.4033996 28.230023 40.3159855 30.2058981 45.2569259 32.4762784 45.2569259 34.2348142 42.8612116 34.2348142 44.5897649"></polygon>
                        <polygon id="Path" fill="#A8633A" fill-rule="nonzero" points="23.9823518 22.1122242 31.6217885 13.5703074 29.1071671 13.3728391 26.9734203 11.2359494 27.364914 9.51938517 23.9823518 8.58141049 23.97952 8.58141049 20.5976658 9.51938517 20.9884515 11.2359494 18.8554126 13.3728391 16.3400833 13.5703074 23.97952 22.1122242 23.97952 22.1150452 23.9809359 22.1136347 23.9823518 22.1150452"></polygon>
                        <polygon id="Path" fill="#5D2900" fill-rule="nonzero" points="39.8261655 14.0639783 39.4353797 8.58070524 36.2489184 9.66748644 34.2348142 8.9763472"></polygon>
                        <polygon id="Path" fill="#5D2900" fill-rule="nonzero" points="40.3139397 9.27254973 39.8254575 14.0639783 39.4353797 8.58070524 41.6328416 6.13562387"></polygon>
                        <path d="M48.0786827,21.8188427 L50.2272964,17.4724231 L51.3012493,10.8530018 L51.3012493,7.93893309 L49.8853589,8.97564195 L49.8853589,10.951736 L47.6390488,15.001953 L43.7205721,17.4724231 L48.0786827,21.8188427 Z M36.2489184,23.8069259 L36.2489184,21.4358951 L32.2207101,19.5768716 L32.7332625,21.1023146 L35.6259266,22.1397288 L36.2489184,23.8069259 Z" id="Shape" fill="#A8633A" fill-rule="nonzero"></path>
                        <polygon id="Path" fill="#CC8E58" fill-rule="nonzero" points="28.3135605 24.1898734 29.4731748 15.9723689 23.97952 22.1150452"></polygon>
                        <g transform="translate(13.283176, 51.941230)" id="Clipped">
                            <mask id="mask-6" fill="white">
                                <use xlink:href="#path-5"></use>
                            </mask>
                            <g id="o"></g>
                            <polygon id="Path" fill="#807664" fill-rule="nonzero" mask="url(#mask-6)" points="21.3006553 3.69406872 14.1787266 0.0493670886 12.881771 0.650940325 10.69776 1.24334539 8.51374904 0.650940325 7.21679342 0.0493670886 0.0948646575 3.69406872 1.83640986 4.94869801 10.6963441 6.82464738 10.6963441 6.82535262 10.6991759 6.82535262 19.5598181 4.94869801"></polygon>
                        </g>
                        <path d="M7.75907945,26.2964376 L6.47628274,27.6970524 L3.30681205,29.0052803 L0.475031233,35.6733635 L1.00669808,41.8731646 L4.81544329,45.1581917 L4.81544329,40.9344846 L6.10531945,37.1543761 L8.71055781,32.2536347 L8.52649205,25.4247559 L7.75907945,26.2964376 Z M44.6557677,29.0052803 L41.485589,27.6970524 L40.2027923,26.2964376 L39.4346718,25.4247559 L39.251314,32.2536347 L41.8565523,37.1543761 L43.1457205,40.9344846 L43.1457205,45.1588969 L46.9544658,41.8731646 L47.4868405,35.6740687 L44.6557677,29.0052803 Z" id="Shape" fill="#DBD5C3" fill-rule="nonzero"></path>
                        <polygon id="Path" fill="#D6B795" fill-rule="nonzero" points="37.6407386 23.4987342 36.2489184 23.8069259 35.0036427 25.6969801 32.622823 26.4001085 30.7064153 25.8077034 32.842994 32.8340506 36.8577512 26.9537251 37.6407386 25.8077034 38.4095671 24.3379747"></polygon>
                        <polygon id="Path" fill="#CFC7AF" fill-rule="nonzero" points="39.4353797 25.4240506 38.4095671 24.3379747 37.6407386 25.8077034 37.0304899 29.8699096 38.4095671 34.6119711 36.7635945 40.5684629 40.5341107 45.2569259 42.3160088 45.8740145 45.8097184 42.8612116"></polygon>
                        <polygon id="Path" fill="#DBD5C3" fill-rule="nonzero" points="40.5341107 45.2569259 36.7635945 40.5684629 35.8701677 43.7998915 32.842994 46.4424412 30.9449929 46.9756058 29.8398904 50.8875949 27.4626104 51.9905967 30.9449929 53.7727486 34.5838312 55.6352984 39.2888351 52.2458951 42.3160088 45.8740145"></polygon>
                        <polygon id="Path" fill="#CFC7AF" fill-rule="nonzero" points="8.5272 25.4240506 9.55230466 24.3379747 10.3218411 25.8077034 10.9320899 29.8699096 9.55230466 34.6119711 11.1989852 40.5684629 7.42846904 45.2569259 5.64586301 45.8740145 2.15215342 42.8612116"></polygon>
                        <polygon id="Path" fill="#2C1800" fill-rule="nonzero" points="17.2073162 25.8077034 17.2073162 23.8809765 15.2293173 21.1023146 12.3359452 22.1397288 11.7129534 23.8069259 12.958937 25.6969801 15.3390488 26.4001085"></polygon>
                    </g>
                </g>
                <polygon id="Path" fill="#CC8E58" fill-rule="nonzero" points="38.6174294 18.6637955 36.0398663 18.2145113 34.9698811 13.6708861 27.36 22.3067363 21.8900892 16.0999834 19.7501189 13.6708861 18.6801337 18.2145113 16.1025706 18.6637955 14.06 20.8601397 15.1419837 24.0185305 15.7623774 22.3328328 18.6441382 21.284738 20.6133061 24.0932937 20.6627117 26.039957 18.53474 33.1424572 17.495104 38.7341772 22.9967756 32.8180133 25.8693611 31.8446816 27.36 22.3159053 28.8513447 31.8446816 31.7239302 32.8180133 37.2256018 38.7341772 36.1859658 33.1424572 34.0579941 26.039957 34.1073997 24.0932937 36.0765676 21.284738 38.9576226 22.3335382 39.5780163 24.0185305 40.66 20.8601397"></polygon>
                <polygon id="Path" fill="#2D2113" fill-rule="nonzero" points="12.54 9.02173285 8.51302048 4.36810011 4.23710566 3.03797468 2.54651024 3.44691058 1.9 6.31090688 1.9 11.4767932 4.18731859 15.6701925 8.17749898 18.2278481 12.1424251 14.6984278"></polygon>
                <polygon id="Path" fill="#2C1800" fill-rule="nonzero" points="27.74 21.2658228 26.98 11.3924051 27.74 11.5530166"></polygon>
                <g id="Clipped" transform="translate(0.380000, 0.000000)">
                    <mask id="mask-8" fill="white">
                        <use xlink:href="#path-7"></use>
                    </mask>
                    <g id="c"></g>
                    <polygon id="Path" fill="#A8633A" fill-rule="nonzero" mask="url(#mask-8)" points="18.3817108 7.39555063 14.6474215 7.59436709 8.02489846 2.22421519 4.10820923 0.0857088608 1.35396923 0.831094937 0 2.92042405 0 7.99270253 1.40167385 9.03666456 1.40167385 6.00313291 2.03025231 3.21829747 3.67395692 2.82066456 7.83127385 4.11332278 11.74656 8.63903165 11.3600123 14.1588228 7.50505846 17.5899873 4.97952 25.9824304 9.71630769 27.8841835 13.5235569 23.6570506 14.9006769 23.9682722 13.8252185 20.8223354 15.2177723 19.3217278 15.8561723 18.6346519 18.4174892 18.1871392 19.4810215 13.6614304 21.9707815 13.4626139 24.0824123 11.3128671 25.8376615 13.9600063 27.0464123 22.2646329 27.0464123 8.63903165"></polygon>
                </g>
                <polygon id="Path" fill="#CC8E58" fill-rule="nonzero" points="4.34808375 42.5316456 3.81385306 36.2340121 6.65337446 29.4600155 9.83034212 28.1308774 5.03292204 26.2119564 17.1 9.11392405 11.4948402 14.2816129 7.59111984 17.7437518 3.22207889 22.1600347 2.38947467 32.0445688 1.9 38.4669641"></polygon>
                <polygon id="Path" fill="#A8633A" fill-rule="nonzero" points="15.8625473 17.9236888 20.14 13.6708861 19.0583289 18.3333358 16.4526146 18.7943698 15.58 19.7468354"></polygon>
                <polygon id="Path" fill="#EBE8DB" fill-rule="nonzero" points="18.8622271 47.0886076 15.8368457 44.4624716 13.3 35.3323668 14.6785204 30.6203007 14.0689128 26.5822785 18.8622271 33.5654287 22.2281675 32.0432822 26.22 32.2887673 25.8872293 34.5959114 23.1061157 35.921115 22.2281675 38.1304811 22.6671416 40.0936686 23.4707475 41.0007153 21.4960719 45.9104177 19.2275669 45.9104177 17.4716703 43.5297668 17.4716703 45.2481626"></polygon>
                <path d="M12.1157716,14.4303797 L12.5169212,8.65265248 L15.7901849,9.79760874 L17.86,9.06960187 L12.1157716,14.4303797 Z M11.6141527,9.38139471 L12.1157716,14.4303797 L12.5169212,8.65265248 L10.26,6.07594937 L11.6141527,9.38139471 Z" id="Shape" fill="#5D2900" fill-rule="nonzero"></path>
                <g id="Clipped" transform="translate(0.380000, 7.594937)">
                    <mask id="mask-10" fill="white">
                        <use xlink:href="#path-9"></use>
                    </mask>
                    <g id="e"></g>
                    <polygon id="Path" fill="#A8633A" fill-rule="nonzero" mask="url(#mask-10)" points="3.14225455 14.5063291 1.04741818 10 0 3.13924051 0 0.118625678 1.38043636 1.19349005 1.38043636 3.24195298 3.57061818 7.44014467 7.39134545 10.0007233"></polygon>
                </g>
                <polygon id="Path" fill="#A8633A" fill-rule="nonzero" points="15.58 24.3037975 15.58 21.7494331 19.38 19.7468354 18.8967282 21.3901081 16.1675462 22.5079244"></polygon>
                <polygon id="Path" fill="#D6B795" fill-rule="nonzero" points="19.0094388 27.1369547 16.6602208 26.4496126 15.4317755 24.605574 14.0586017 24.3037975 13.3 25.1239757 14.0586017 26.5579252 14.8311868 27.6771551 18.7926955 33.4177215 20.9 26.5579252"></polygon>
                <polygon id="Path" fill="#2D2113" fill-rule="nonzero" points="42.94 9.02173285 46.9677011 4.36810011 51.2436159 3.03797468 52.9342113 3.44691058 53.58 6.31090688 53.58 11.4767932 51.2926814 15.6701925 47.302501 18.2278481 43.3382965 14.6984278"></polygon>
                <polygon id="Path" fill="#2C1800" fill-rule="nonzero" points="34.58 25.9870483 34.58 24.054301 36.4953922 21.2658228 39.297451 22.3071254 39.9 23.9800723 38.6942157 25.8757053 36.3883333 26.5822785"></polygon>
                <g id="Group" transform="translate(34.580000, 21.265823)">
                    <g transform="translate(0.283733, 0.272068)" id="Clipped">
                        <mask id="mask-12" fill="white">
                            <use xlink:href="#path-11"></use>
                        </mask>
                        <g id="g"></g>
                        <path d="M2.40362667,3.36202532 C3.26428444,3.36202532 3.98577778,2.74970464 4.18033778,1.92472574 C4.18979556,2.00843882 4.19587556,2.09350211 4.19587556,2.17991561 C4.19587556,3.24185654 3.41020444,4.10261603 2.44145778,4.10261603 C1.47271111,4.10261603 0.68704,3.24185654 0.68704,2.17991561 L0.688391111,2.13130802 C0.945102222,2.84962025 1.61660444,3.36270042 2.40430222,3.36270042" id="Path" fill="#4D2F00" fill-rule="nonzero" mask="url(#mask-12)"></path>
                    </g>
                    <g transform="translate(0.283733, 0.272068)" id="Clipped">
                        <mask id="mask-14" fill="white">
                            <use xlink:href="#path-13"></use>
                        </mask>
                        <g id="i"></g>
                        <path d="M2.40362667,3.36202532 C1.61660444,3.36202532 0.945777778,2.84962025 0.688391111,2.13130802 C0.712035556,1.09164557 1.48757333,0.25721519 2.44145778,0.25721519 C3.33116444,0.25721519 4.06616889,0.983628692 4.17966222,1.92472574 C3.98577778,2.74970464 3.26428444,3.36270042 2.40362667,3.36270042" id="Path" fill="#2C1800" fill-rule="nonzero" mask="url(#mask-14)"></path>
                    </g>
                    <g transform="translate(0.283733, 0.272068)" id="Clipped">
                        <mask id="mask-16" fill="white">
                            <use xlink:href="#path-15"></use>
                        </mask>
                        <g id="k"></g>
                        <path d="M3.1616,2.24 L4.06819556,1.95240506 C4.06819556,1.95240506 3.71960889,0.983628692 2.36039111,1.19898734 C2.36039111,1.19898734 3.05756444,1.8092827 3.1616,2.24" id="Path" fill="#ECD9CB" fill-rule="nonzero" mask="url(#mask-16)"></path>
                    </g>
                </g>
                <g id="Group" transform="translate(15.580000, 21.265823)">
                    <g transform="translate(0.266844, 0.272068)" id="Clipped">
                        <mask id="mask-18" fill="white">
                            <use xlink:href="#path-17"></use>
                        </mask>
                        <g id="q"></g>
                        <path d="M2.92110222,3.36202532 C2.06044444,3.36202532 1.33895111,2.74970464 1.14506667,1.92472574 C1.13493333,2.00843882 1.12952889,2.09350211 1.12952889,2.17991561 C1.12952889,3.24185654 1.91452444,4.10261603 2.88394667,4.10261603 C3.85201778,4.10261603 4.63768889,3.24185654 4.63768889,2.17991561 L4.63633778,2.13130802 C4.37962667,2.84962025 3.7088,3.36270042 2.92110222,3.36270042" id="Path" fill="#4D2F00" fill-rule="nonzero" mask="url(#mask-18)"></path>
                    </g>
                    <g transform="translate(0.266844, 0.272068)" id="Clipped">
                        <mask id="mask-20" fill="white">
                            <use xlink:href="#path-19"></use>
                        </mask>
                        <g id="s"></g>
                        <path d="M2.92110222,3.36202532 C3.7088,3.36202532 4.37962667,2.84962025 4.63701333,2.13130802 C4.61201778,1.09164557 3.83715556,0.25721519 2.88327111,0.25721519 C1.99288889,0.25721519 1.25856,0.983628692 1.14439111,1.92472574 C1.33827556,2.74970464 2.05976889,3.36270042 2.92110222,3.36270042" id="Path" fill="#2C1800" fill-rule="nonzero" mask="url(#mask-20)"></path>
                    </g>
                    <g transform="translate(0.266844, 0.272068)" id="Clipped">
                        <mask id="mask-22" fill="white">
                            <use xlink:href="#path-21"></use>
                        </mask>
                        <g id="u"></g>
                        <path d="M2.16312889,2.24 L1.25720889,1.95240506 C1.25720889,1.95240506 1.60579556,0.983628692 2.96501333,1.19898734 C2.96501333,1.19898734 2.26784,1.8092827 2.16312889,2.24" id="Path" fill="#ECD9CB" fill-rule="nonzero" mask="url(#mask-22)"></path>
                    </g>
                </g>
                <g id="Group" transform="translate(25.460000, 22.025316)" fill-rule="nonzero">
                    <polygon id="Path" fill="#D9AA8B" points="2.05082743 0.513550633 0.173410286 12.2907911 3.93111086 12.2907911"></polygon>
                    <path d="M22.3154674,26.0498734 L22.3154674,25.8215506 L23.0678674,25.8215506 L23.0678674,26.0498734 L22.8206503,26.0498734 L22.8206503,26.8212532 L22.5648343,26.8212532 L22.5648343,26.0498734 L22.3154674,26.0498734 Z M24.1233771,25.818038 L24.2165314,25.818038 L24.2165314,26.8212532 L23.9514,26.8212532 L23.9514,26.3758481 L23.735712,26.5985506 L23.7070491,26.5985506 L23.4920777,26.3758481 L23.4920777,26.8212532 L23.2269463,26.8212532 L23.2269463,25.8187405 L23.3229669,25.8187405 L23.7192309,26.2529051 L24.1233771,25.818038 Z" id="Shape" fill="#CC8E58"></path>
                    <path d="M23.2656411,24.8794557 C22.4609314,24.8794557 21.8059851,25.5257848 21.8059851,26.3196456 C21.8059851,27.1142089 22.4609314,27.760538 23.2656411,27.760538 C24.0710674,27.760538 24.7260166,27.1142089 24.7260166,26.3203481 C24.7276018,25.5274837 24.0743444,24.8829401 23.2656411,24.8794557 M23.2656411,27.9523291 C22.3498538,27.9480716 21.6102043,27.2182012 21.6117903,26.3203481 C21.6098088,25.422221 22.3495736,24.6919227 23.2656411,24.6876646 C24.181989,24.6915365 24.9221888,25.4219481 24.9202086,26.3203481 C24.9217932,27.2184741 24.1817087,27.9484576 23.2656411,27.9523291" id="Shape" fill="#CC8E58"></path>
                </g>
            </g>
        </g>
    </g>
</svg>