<svg xmlns="http://www.w3.org/2000/svg" xmlns:xlink="http://www.w3.org/1999/xlink" width="91" height="30" viewBox="0 0 91 30">
    <defs>
        <path id="a" d="M.1.625h28.23V29.21H.1z"/>
        <path id="c" d="M0 .302h29.338v27.694H0z"/>
    </defs>
    <g fill="none" fill-rule="evenodd">
        <g transform="translate(62.263 .164)">
            <mask id="b" fill="#fff">
                <use xlink:href="#a"/>
            </mask>
            <path fill="#5B5B5B" d="M16.086 24.368c1.54-.13 1.298-1.023 1.304-1.692.027-3.078.005-6.156.019-9.235.003-.645.085-1.288.129-1.905h3.33v10.041c2.666-2.315 3.337-7.252 1.784-10.93-1.678-3.97-4.802-5.737-9.593-5.422-3.719.244-6.827 2.99-7.803 6.893-.936 3.739.086 8.016 2.333 9.431l.216-3.718h3.347c0 .829-.002 1.495 0 2.162.005 1.107.003 2.216.022 3.323.011.735.306 1.148 1.403.862v-8.912h3.51v9.102zM.1 15.442c.104-5.397 1.756-9.786 6.292-12.557 4.752-2.902 9.81-2.94 14.769-.507 4.759 2.333 6.847 6.553 7.133 11.544.308 5.39-1.304 10.196-6.242 13.163C14.89 31.39 2.646 29.466.417 18.441.2 17.365.18 16.251.1 15.442z" mask="url(#b)"/>
        </g>
        <g transform="translate(0 .954)">
            <mask id="d" fill="#fff">
                <use xlink:href="#c"/>
            </mask>
            <path fill="#5B5B5B" d="M29.338 27.996h-5.12V8.786l-.4-.175c-.395.5-.8.992-1.186 1.5-2.243 2.95-4.48 5.904-6.72 8.856-.445.585-.813 1.312-2.03.89L5.546 8.646l-.296.074v19.216H0V.364h6.063l8.607 11.65L23.316.302h6.022v27.694z" mask="url(#d)"/>
        </g>
        <path fill="#5B5B5B" d="M57.852 1.302v27.441H54.38L40.44 11.054l-.36.061v17.626h-5.293V1.294h4.32l13.163 16.42c.11-.04.218-.082.327-.123V1.301h5.254z"/>
    </g>
</svg>
