<svg xmlns="http://www.w3.org/2000/svg" width="129" height="21" viewBox="0 0 129 21">
    <g fill="#5B5B5B" fill-rule="evenodd">
        <path d="M49.206 20.562h-6.598v-15.8h-9.291V0h24.885v4.761h-8.996zM90.422 15.775v4.787H67.207V0h23.215v4.761H73.805v3.454h15.593v4.16H73.805v3.4zM108.126 20.562H99.24l10.26-10.15L99.616 0h8.592l5.844 6.357L119.868 0h8.672l-9.992 10.412 10.45 10.15h-8.86l-6.007-6.174zM24.76 0v4.248H7.91v.213c-.156.01-.301.021-.44.039a2.84 2.84 0 0 0-.808.222c-.248.11-.458.287-.606.51-.152.226-.228.524-.228.89 0 .662.242 1.098.727 1.308.351.153.804.25 1.355.29v.327h10.076l.05.002h.002c.394.017.75.032 1.066.048.576.026 1.051.056 1.428.092 1.407.074 2.513.45 3.317 1.126-.3.307-.4.754-.05 1.208.127.168.245.318.35.464-.39 1.236-.16 2.908-.468 3.893-.149.476.019.857.32 1.097-.337.865-.576 1.693-.37 2.642l-1.626 1.58c-.807.242-1.765.363-2.873.363H.01v-4.448h16.32c.114 0 .225-.002.334-.004.092-.003.181-.007.27-.013.15-.007.294-.019.432-.034a3.226 3.226 0 0 0 .876-.222c.27-.115.484-.283.646-.512.162-.226.242-.523.242-.889 0-.42-.112-.754-.337-1.007a1.864 1.864 0 0 0-.76-.51l-.115-.04c-.32-.1-.65-.165-.984-.196v-.39H6.399a4.387 4.387 0 0 1-.17-.009l-.16-.007a30.923 30.923 0 0 1-1.428-.091c-1.798-.094-3.136-.623-4.014-1.587a.846.846 0 0 0 .087-.137c.26-.478.423-1.012.5-1.545.108-.77-.46-1.554-.322-2.238.129-.644.658-.954.58-1.718-.088-.852-.756-1.464-.91-2.278a1.108 1.108 0 0 0-.133-.36L2.424.389C3.117.13 3.946 0 4.912 0H24.76z"/>
        <path d="M6.228 0v4.807c-.848.047-1.17.857-.97 1.489-.309.639-.007 1.579.906 1.633a.567.567 0 0 0 .064.005v4.364H0V2.74l.428-.416v.002L2.425.388 2.42.39 2.82 0h3.408z"/>
        <path d="M4.244 4.369h3.664v3.559H4.244zM24.557 8.05v9.69l-.923.896-.004-.017-1.626 1.58.03-.01-.382.373h-3.618V8.049h6.523z"/>
        <path d="M16.934 12.569h2.47v3.7h-2.74v-.16c.092-.001.182-.006.27-.013V12.57z"/>
        <path d="M16.664 16.11c.092-.002.182-.007.27-.014v.353H.01v-.334h16.32c.114 0 .225-.003.334-.005zM7.908 3.816h16.853v1H7.908zM22.004 20.199l.03-.01-.381.373h-.023l.374-.363zM24.557 17.719v.02l-.923.897-.004-.017z"/>
        <path d="M19.717 18.677l2.902-2.82 1.938 1.883-2.903 2.82z"/>
    </g>
</svg>
